<?xml version="1.0" encoding="UTF-8"?>
<svg width="827.58612" height="699.4754" xmlns="http://www.w3.org/2000/svg">
 <title>flower</title>
 <metadata id="metadata7">image/svg+xml</metadata>

 <g>
  <title>Layer 1</title>
  <g id="layer1">
   <path fill="#6b026b" fill-rule="nonzero" stroke-width="1px" d="m405.526093,414.056946c-3.175629,-0.87085 -6.353027,0.102966 -9.53244,0.63382c-6.186798,1.25174 -12.216492,3.098083 -18.305664,4.735199c-6.473328,1.81662 -12.068085,5.382019 -17.730438,8.897003c-4.36557,3.198486 -7.590729,7.211792 -10.587555,11.598877c-3.478058,5.712585 -5.389587,12.164001 -7.147308,18.566772c-2.373657,8.005005 -3.525879,16.30542 -4.886261,24.529602c-1.166626,8.467163 -2.618744,16.875732 -3.983734,25.302429c-0.84552,7.305206 -2.411499,14.468231 -4.279877,21.570526c-1.568665,5.546326 -3.449585,11.002686 -5.023682,16.557739c-1.392639,2.964417 -2.655334,6.02179 -3.966003,8.941223c-0.573334,1.818054 -1.484955,3.52356 -2.221252,5.206787c1.818848,-4.476929 -0.65094,-6.170959 -5.286316,-7.528076c-0.23407,0.578735 2.4039,-1.202148 3.116699,-1.558655c3.824341,-3.471375 7.583435,-7.000732 11.045471,-10.827454c4.930756,-5.55603 10.617676,-10.38562 16.378174,-15.047241c5.302917,-4.283203 10.952637,-8.158936 16.507446,-12.087769c6.232941,-4.123688 12.40564,-8.339203 18.134918,-13.157196c7.538269,-6.604614 13.628265,-14.392029 19.628967,-22.344727c5.037964,-7.79126 8.855865,-16.182617 12.271973,-24.777466c2.951385,-7.116943 5.538818,-14.368347 8.101227,-21.631775c3.238678,-3.19162 2.54126,-6.531494 3.371521,-9.978058c0.473175,-1.964111 2.045807,-2.330658 2.819183,-0.464233l0,0c1.602478,3.86734 2.840088,7.955597 4.503174,11.954315c0.27301,9.165955 -2.378571,17.556885 -6.468689,25.725037c-4.564667,8.91095 -8.988434,17.990479 -14.869659,26.123352c-6.030609,8.875427 -13.167145,17.04718 -20.668335,24.707947c-5.755646,5.905548 -11.456451,11.912262 -18.537689,16.260406c-5.470917,3.415466 -11.01651,6.74707 -16.225006,10.584351c-5.334229,4.40387 -10.472076,8.925049 -15.208313,13.961914c-4.641388,3.977417 -9.015472,8.389526 -14.704376,10.97467c-2.548798,1.446228 -5.103638,3.169739 -8.001801,3.725159c-6.476715,-1.612 -7.89447,-4.145508 -5.769714,-9.859192c0.782104,-1.338196 1.637604,-2.863098 2.495239,-4.269348c1.126373,-2.84436 2.479034,-5.724365 3.382629,-8.721436c2.528931,-4.830872 4.628479,-9.787598 6.290741,-14.986938c1.936462,-6.805298 3.855957,-13.604004 5.23877,-20.547333c1.669495,-8.320862 3.047455,-16.692017 4.44632,-25.067322c1.445679,-8.458252 3.222534,-16.840637 4.880798,-25.255737c2.046478,-7.129578 3.843964,-14.313843 7.279541,-20.942627c3.464691,-5.689331 6.810944,-11.316833 12.751648,-14.771942c6.10141,-4.143524 12.431519,-7.765503 19.040955,-11.05127c6.078247,-3.053619 12.263611,-5.794922 18.75647,-7.879486c4.02301,-1.355072 8.083832,-2.567993 12.153046,-3.756317c10.843109,-3.166473 11.703033,18.941864 0.809204,15.954468z" id="path2637"/>
   <path fill="#6b026b" fill-rule="nonzero" stroke-width="1px" d="m425.734711,406.284821c2.568542,0.102905 5.131073,1.046356 7.614166,1.826202c4.734924,1.225677 9.4888,2.198456 14.32135,2.966187c5.82486,1.563202 11.87735,1.824036 17.846436,2.043427c5.370819,0.176941 10.595093,-0.386017 15.853241,-1.298828c6.194,-1.067169 11.787109,-3.919922 17.426697,-6.556091c5.349609,-2.813446 9.990143,-6.44989 14.488678,-10.4245c2.557617,-2.093597 3.904053,-5.068604 5.463074,-7.668549c1.092468,-1.108398 0.480652,-2.552979 0.700317,-3.71991c-0.024109,-0.501953 -0.201355,-0.827454 -0.321167,-1.319519c-0.187622,-0.367828 0.279602,0.777039 0.419373,1.165588c0.524048,0.309052 1.171753,0.327911 1.757629,0.491852c-3.700012,-0.171722 -7.470032,0.887146 -11.099854,1.674835c-6.526978,1.806641 -13.124573,3.322174 -19.675293,5.066528c-6.414642,1.517212 -12.824402,3.019684 -19.266205,4.408264c-6.658539,2.454132 -13.212708,3.262299 -19.845245,2.779785c-6.992004,1.641998 -14.1203,2.498016 -21.240234,3.343262c-2.006195,0.238159 -2.324341,-2.60141 -0.318085,-2.839386l0,0c7.010773,-0.831573 14.030151,-1.671875 20.915161,-3.287689c5.602966,-3.334961 11.899841,-5.745972 18.793793,-6.871948c6.40155,-1.626556 12.873596,-2.862762 19.34317,-4.239777c6.469177,-1.503113 12.79895,-3.335114 18.956299,-5.844238c4.044128,-1.55072 8.110321,-3.040833 12.200714,-4.414734c3.217407,-0.468964 5.249023,-1.178314 8.042419,1.142883c0.818298,1.523438 2.450317,2.815063 2.382874,4.698853c0.143921,1.61795 0.67627,3.201477 0.435669,4.898712c-0.604126,2.661896 -1.13855,5.339081 -2.322998,7.825287c-2.801147,3.673706 -5.307983,7.516754 -9.464722,9.874176c-5.348999,3.765717 -10.836456,7.390106 -16.800232,10.125275c-6.207794,3.335602 -12.452393,6.700958 -19.28772,8.576874c-5.969788,0.768036 -11.908112,1.136322 -17.918945,0.351563c-6.2995,-0.482819 -12.650116,-1.020813 -18.967499,-1.718842c-4.877319,-1.103455 -9.754883,-2.150208 -14.684753,-3.004944c-3.000549,-0.641357 -6.054443,-0.99231 -8.586304,-2.864838c-4.392365,-3.248505 -2.620514,-7.40451 2.838196,-7.18576z" id="path2639"/>
   <path fill="#6b026b" fill-rule="nonzero" stroke-width="1px" d="m542.557373,375.936005c5.868591,0.660217 10.866089,-0.873627 16.858948,-0.719818c10.113953,1.195435 20.202454,2.436401 30.286987,3.809479c11.899963,2.497711 23.071594,7.328796 34.558472,11.174927c10.21637,4.518738 20.643555,8.531433 30.749329,13.291962c6.621765,2.343597 12.580444,6.06488 18.816528,9.227478c3.774353,1.179626 6.650879,3.780548 9.621155,6.255127c4.07666,3.860229 5.256653,7.291138 4.585938,13.02652c-3.230347,6.416199 -6.213623,5.495483 -12.700195,3.415039c-1.923767,-0.617004 -1.203735,-0.320129 -1.736511,-2.268921l0,0c-0.319214,-1.167603 -2.041077,-10.295685 -4.002747,-5.433685c0.076965,0.724091 1.202942,7.834442 0.673462,4.204193c-1.829346,-1.849426 -3.542297,-3.907806 -5.490662,-5.678406c-4.932739,-4.224915 -10.141663,-8.05246 -15.349426,-11.942139c-9.449585,-5.348907 -18.976807,-10.515228 -29.176636,-14.350769c-10.357239,-5.12854 -21.277588,-8.982483 -32.495605,-11.76474c-9.426941,-2.805939 -18.856262,-3.948547 -28.728333,-3.404938c-5.699829,-0.206329 -10.511414,-2.198181 -16.039734,-0.902466c-5.473572,1.282898 -6.017578,-8.567352 -0.430969,-7.938843z" id="path2647"/>
   <path fill="#6b026b" fill-rule="nonzero" stroke-width="1px" d="m429.94223,380.30658c1.312714,-2.299988 3.234619,-4.210083 4.702423,-6.491119c1.750214,-2.444092 2.852722,-5.213226 3.96579,-7.977081c0.882202,-2.641846 1.475739,-5.351471 2.159485,-8.056702c0.636627,-2.841217 0.335693,-5.672791 0.039673,-8.53006c-0.769226,-3.875305 -2.280396,-7.533417 -3.585785,-11.248657c-2.239471,-4.725555 -4.150879,-9.560303 -6.788086,-14.092224c-2.407959,-5.062164 -6.137817,-9.332825 -9.694153,-13.61969c-3.718048,-4.472809 -8.494476,-7.831543 -12.723724,-11.749786c-3.937531,-3.360229 -7.976318,-6.586792 -12.180267,-9.603882c-2.685852,-2.055023 -5.641266,-3.710083 -8.46109,-5.553864c-1.58667,-0.711304 -2.954315,-1.739166 -4.445343,-2.615601c-0.755859,-0.181152 -1.492828,-0.336029 -2.243073,-0.504944c-0.4151,-1.985474 -0.948273,-1.093689 -2.384247,-1.471222c-1.396515,0.938629 -2.443024,2.244019 -3.412964,3.600739c-1.422089,2.462311 -2.475006,5.098846 -3.517914,7.726166c-1.34201,3.282623 -1.786255,6.823669 -2.206024,10.323486c-0.305328,4.210815 -0.460388,8.485443 -0.344757,12.712341c0.269684,5.26123 1.11496,10.492188 2.115875,15.663513c1.291443,5.585907 3.116028,11.014069 4.823975,16.479858c2.211334,5.316681 4.435181,10.586853 7.139984,15.67749c2.879547,4.579041 5.288849,9.408875 8.590729,13.713837c3.571167,4.676666 7.707886,9.094147 12.301636,12.77951c3.285889,2.448792 5.617859,5.636475 9.179504,7.679901c0.87619,0.502716 0.16452,1.742157 -0.711334,1.238892l0,0c-3.625336,-2.083099 -7.817017,-3.026306 -10.916626,-5.991913c-4.737671,-4.123016 -9.667847,-8.020081 -13.544678,-13.030579c-3.182709,-4.629669 -6.291687,-9.369873 -8.47879,-14.566711c-2.592255,-5.308777 -5.233704,-10.670013 -6.953186,-16.330719c-2.070343,-5.500519 -3.444824,-11.231659 -4.471497,-17.013519c-1.203186,-5.357147 -2.31488,-10.701843 -2.519745,-16.210114c-0.109192,-4.431976 -0.173859,-8.803497 0.524536,-13.205322c0.588928,-3.73349 1.122162,-7.437775 2.258911,-11.063538c1.006775,-2.862671 2.018707,-5.733856 3.527557,-8.382721c1.03006,-2.140717 1.808075,-4.291962 3.78714,-5.83844c1.718384,-1.668488 3.407013,-3.274902 5.398193,-4.59848c2.129333,0.042542 4.167511,0.004242 6.113037,1.060883c2.297577,0.859833 4.41214,1.833435 6.221191,3.538757c2.968628,2.118561 5.733704,4.477661 8.506226,6.85257c3.984833,3.540436 7.931885,7.115234 11.80542,10.778442c4.617889,3.98645 8.732361,8.553955 12.901642,13.009247c4.075073,4.563202 7.605286,9.513428 11.037628,14.56546c2.630585,4.828766 5.392578,9.644379 7.352417,14.789978c2.07608,4.115723 3.887024,8.38559 4.939606,12.886322c0.709351,4.002167 1.157104,7.935242 0.216461,11.976807c-0.660767,3.49585 -1.447693,6.892151 -3.228607,10.025391c-1.725159,3.046722 -3.575989,6.03598 -5.852386,8.736176c-1.753876,2.050293 -3.170532,4.524567 -5.132233,6.260223c-3.838135,3.395874 -8.352844,0.121735 -5.812531,-4.329102z" id="path2679"/>
   <path fill="#6b026b" fill-rule="nonzero" stroke-width="1px" d="m479.344269,379.28479c2.136993,-0.106293 4.2052,-0.879059 6.284882,-1.609253c5.649353,-2.535828 9.703033,-7.409119 13.537018,-12.097504c5.831329,-7.987244 9.84726,-17.011566 13.494965,-26.148499c3.636597,-9.37561 6.406494,-19.047333 8.980347,-28.757507c2.048279,-7.920197 3.481689,-15.969269 4.752625,-24.043304c0.99231,-6.338623 1.464783,-12.754852 1.300049,-19.167755c0.001282,-4.804779 -0.805115,-9.510254 -1.596619,-14.226074c-0.767151,-3.597931 -1.850159,-7.124481 -2.981506,-10.610535c-0.434509,-2.103821 -1.60376,-3.736572 -2.832458,-5.408844c-0.365479,-0.615601 -0.954773,-1.067047 -1.43219,-1.600586c2.082703,-1.400635 -2.63324,0.470825 -3.23761,0.758423c-4.384369,3.057892 -7.835541,7.096466 -11.057343,11.322815c-4.906891,6.96344 -8.540771,14.643524 -12.236633,22.284241c-4.733063,9.647736 -8.889221,19.551849 -12.689331,29.599396c-4.042236,10.922516 -7.452423,22.067902 -10.35495,33.343414c-2.620056,10.723145 -4.644867,21.59787 -5.710785,32.587311c-0.908325,4.488953 -0.679901,9.023712 -0.450195,13.555359c0.051147,1.008881 -1.376068,1.080902 -1.426758,0.072021l0,0c-0.231842,-4.614349 -0.330566,-9.226257 -0.366058,-13.846832c1.097656,-11.126282 3.012878,-22.111786 6.377563,-32.803741c3.314392,-11.205383 6.431671,-22.480499 10.595001,-33.412933c3.816254,-10.08905 7.76178,-20.141541 12.691681,-29.749176c3.823395,-7.666382 7.482208,-15.414307 11.350647,-23.052032c2.725433,-5.077148 5.737091,-9.975677 9.811951,-14.093292c2.916931,-3.243408 5.722107,-6.626587 10.533142,-5.823151c2.60083,1.320648 4.627441,2.709076 6.308655,5.202942c1.371887,2.726013 2.556885,5.502106 3.283081,8.490051c0.828491,3.922638 1.622253,7.855194 2.211121,11.824158c0.709656,5.192139 1.143921,10.425446 0.89209,15.673767c-0.310242,6.826141 -0.864563,13.639893 -2.300354,20.338226c-1.777771,8.153259 -4.149414,16.157013 -6.567749,24.140259c-2.857788,9.81076 -5.85083,19.560333 -9.523071,29.105682c-3.703796,9.5401 -7.679199,19.029663 -12.837189,27.886749c-3.746613,6.378265 -7.949982,12.282196 -14.118011,16.554779c-2.684082,1.722473 -5.517273,3.717773 -8.611389,4.272278c-7.491028,1.342468 -9.675598,-10.18277 -2.074615,-10.560852z" id="path2687"/>
   <path fill="#6b026b" fill-rule="nonzero" stroke-width="1px" d="m508.973846,374.274567c2.729553,-1.19281 5.281281,-3.088684 7.69516,-4.878387c5.741028,-4.595245 10.84845,-9.917053 15.849426,-15.290314c5.299683,-5.978516 10.043213,-12.400116 14.466064,-19.044067c3.960571,-6.299408 7.884033,-12.595581 11.569641,-19.06012c3.411316,-5.726929 6.687988,-11.445496 8.770813,-17.834656c0.293945,-1.006439 0.587891,-2.012909 0.881775,-3.019348c0.283203,-0.969666 1.654602,-0.56897 1.371277,0.400604l0,0c-0.298279,1.020569 -0.596619,2.041138 -0.894897,3.061707c-2.100403,6.436859 -3.864136,13.091248 -6.920288,19.122894c-3.432495,6.722137 -7.231995,13.341339 -11.703125,19.427917c-4.663208,6.666199 -9.176025,13.46582 -14.53418,19.607025c-4.823303,5.7229 -10.065308,11.06839 -14.918701,16.763611c-2.312256,2.784943 -4.499573,5.694305 -7.148987,8.176453c-4.479584,4.196838 -10.108765,-4.975311 -4.483978,-7.433319z" id="path2689"/>
   <path fill="#6b026b" fill-rule="nonzero" stroke-width="1px" d="m576.276733,246.603027c-0.322205,-1.336273 0.395996,-3.343811 0.784485,-4.898346c0.591675,-2.535797 0.634094,-5.104126 0.498962,-7.685059c0.16333,-2.116425 -0.210266,-4.210785 -0.446899,-6.299988c0.097412,-0.70108 -0.551147,-1.949402 -0.625488,-2.212616c1.845581,1.148163 0.018982,-0.098663 -0.173218,0.898651c-3.745789,2.873413 -6.267334,6.954559 -8.670593,10.944824c-4.528748,7.401245 -9.365906,14.606201 -14.188965,21.816895c-5.344727,7.868256 -10.789978,15.666046 -16.044678,23.595245c-5.250183,7.885498 -10.200073,15.962982 -14.802307,24.242371c-0.490845,0.882904 -1.739441,0.188751 -1.248596,-0.694122l0,0c4.62085,-8.311462 9.58905,-16.421234 14.860168,-24.337433c5.255859,-7.930786 10.701782,-15.730591 16.047974,-23.600311c4.810486,-7.191895 9.635315,-14.37796 14.152588,-21.759705c2.581421,-4.285919 4.588623,-8.89032 7.407532,-13.025452c2.214233,-2.304382 3.879089,-3.368011 6.722351,-1.259888c0.873474,1.620605 1.751526,3.003693 1.544739,5.04834c-0.018738,2.274261 -0.126221,4.543671 -0.125122,6.819031c-0.399963,2.696899 -0.689758,5.387543 -0.892151,8.10498c-0.095825,1.756134 0.051758,3.971008 -0.800659,5.311035c-1.565613,2.461243 -3.316284,1.827271 -4.000122,-1.008453z" id="path2691"/>
   <path fill="#6b026b" fill-rule="nonzero" stroke-width="1px" d="m545.166992,353.329865c1.694458,-3.775909 4.798584,-6.389221 7.551636,-9.357056c6.42395,-6.816895 11.148438,-14.939819 16.868835,-22.319824c7.40387,-8.884277 14.435852,-18.051453 21.145081,-27.467896c7.103271,-10.429321 14.647644,-20.727325 20.111023,-32.132141c4.365906,-9.020111 7.457275,-18.507141 10.056702,-28.154633c2.356995,-7.681305 4.070557,-15.535919 5.893677,-23.356171c1.023621,-5.839355 1.827148,-11.695404 2.09314,-17.617157c0.519897,-3.13797 -0.415771,-6.057251 -1.191284,-8.941071c-0.420044,-0.99588 -1.369446,-1.323822 -2.138855,-1.925476c-0.10022,-0.338928 -1.393005,0.297363 -1.998962,0.426697c-6.741638,2.243591 -11.65448,6.105621 -16.152344,11.503601c-4.202393,5.576538 -2.112244,2.664886 -6.248108,8.751068c-0.567688,0.83548 -1.749451,0.032227 -1.181396,-0.803131l0,0c4.190063,-6.161957 2.071838,-3.213135 6.332092,-8.862518c4.755493,-5.704803 8.194519,-12.254395 13.213562,-17.660065c3.967896,-2.881409 7.84021,-3.834259 12.215759,-1.227371c2.273987,2.221939 4.186768,4.485214 4.746521,7.755142c0.228088,4.066254 0.024475,7.913086 -0.997986,11.894135c-1.358704,5.945892 -2.905762,11.83844 -4.713379,17.672363c-1.983643,7.855927 -4.287903,15.627502 -6.274048,23.481232c-3.238281,9.609833 -7.130005,19.011902 -11.985901,27.92572c-6.186035,11.144073 -11.591248,22.736725 -18.760864,33.332581c-6.379456,9.738922 -13.291443,19.077667 -20.354797,28.328674c-5.647522,7.433685 -11.933533,14.404053 -16.739319,22.444733c-2.22821,3.467712 -4.102356,7.102783 -7.484802,9.619781c-2.948303,2.19397 -5.510559,0.041718 -4.005981,-3.311218z" id="path2693"/>
   <path fill="#6b026b" fill-rule="nonzero" stroke-width="1px" d="m402.593689,401.421661c-3.285492,-1.065155 -6.565796,-2.089294 -9.897461,-3.024719c-8.90036,-2.635956 -17.568848,-5.916412 -26.187256,-9.361572c-12.249207,-3.886932 -23.657532,-9.561981 -34.376678,-16.587921c-11.338989,-7.809418 -20.579346,-18.003204 -29.268555,-28.566437c-7.127777,-8.731903 -13.344574,-18.130646 -19.35733,-27.646393c-3.32077,-5.590759 -5.544861,-11.690186 -8.038483,-17.663605c-1.263275,-2.634888 -2.350922,-5.351105 -3.525208,-8.028076c-0.654266,-1.247986 -1.307404,-2.443695 -2.016388,-3.661713c-0.797577,-4.035767 1.585938,-5.26413 5.225922,-5.155243c3.48175,1.377045 6.716766,3.282898 10.262604,4.489288c6.561951,2.970978 13.493774,5.050446 20.331848,7.284332c9.667114,4.072998 18.816711,9.302399 27.507813,15.161041c8.86087,5.280823 17.00531,11.50116 24.687988,18.355133c3.788483,4.168884 7.054626,8.70285 10.769592,12.957458c0.664398,0.760925 -0.411865,1.700531 -1.076141,0.939514l0,0c-3.686798,-4.223694 -7.747833,-7.6987 -12.24292,-11.044525c-7.517853,-6.732025 -15.443939,-13.020203 -23.596588,-18.964203c-8.692993,-5.441864 -17.250275,-11.265472 -27.038879,-14.611267c-6.751404,-2.58432 -13.792542,-4.1745 -20.848724,-5.710968c-3.18219,-1.112 -6.509277,-2.005493 -9.881409,-2.227814c0.968933,-0.702576 3.433502,-1.380096 2.659607,-3.692261c0.33783,1.015442 0.616547,2.513702 1.113922,3.629242c0.862885,2.934326 1.616211,5.920319 1.853546,8.987915c1.244293,6.156128 3.446899,12.043457 6.061676,17.753601c4.687897,10.174072 11.214874,19.254883 18.250854,27.941071c8.596436,10.453033 17.733032,20.546234 28.948669,28.279297c10.59259,6.949646 21.875977,12.676636 34.069061,16.291168c8.821686,2.128479 17.757874,4.224548 26.835022,4.795288c2.941437,0.274292 6.019836,0.850494 8.92569,0.250519c6.116974,-1.263031 5.789734,10.758118 -0.151794,8.831848z" id="path2699"/>
   <path fill="#6b026b" fill-rule="nonzero" stroke-width="1px" d="m394.548309,400.934143c-2.283081,1.050964 -4.826721,1.388672 -7.328827,1.687469c-6.145905,0.565674 -12.294128,1.092407 -18.472534,1.144135c-10.181061,0.010681 -20.362793,-0.198669 -30.546448,-0.151489c-12.9086,0.17804 -25.744781,-0.783356 -38.617096,-1.582184c-14.317474,-1.026764 -28.488464,-3.083038 -42.52182,-6.067322c-14.068985,-2.965607 -27.726746,-7.35141 -41.322876,-11.953003c-11.249512,-3.715454 -22.102402,-8.431213 -32.801147,-13.483093c-6.903137,-3.55481 -13.991867,-6.835083 -20.715897,-10.737244c-3.824234,-1.969971 -7.340958,-4.529541 -10.797943,-7.077423c-2.537491,-1.892242 -4.353149,-4.249146 -5.891083,-6.952667c-1.173035,-2.136017 -1.666077,-4.482697 -2.206619,-6.81601c-0.422531,-1.571411 -0.416763,-3.140137 -0.363953,-4.742523c0.098007,-2.570313 1.44165,-4.047882 3.033447,-5.875916c2.637726,-1.349701 5.308777,-0.952209 8.116333,-0.77063c4.141647,-0.192871 8.288208,0.087708 12.434937,0.090485c6.551224,0.455322 13.098251,0.790131 19.623688,1.554962c7.676697,0.888031 15.332993,1.925201 23.008087,2.831512c8.010727,0.794922 15.742508,3.05246 23.453156,5.246277c8.130325,2.501892 16.256622,5.0271 24.432404,7.379974c7.944733,2.25174 15.230255,6.052643 22.892761,9.040131c0.941132,0.366943 0.422028,1.698029 -0.519073,1.330963l0,0c-7.670654,-2.991943 -15.631165,-4.068298 -23.552795,-6.286255c-8.170288,-2.365509 -16.331192,-4.710815 -24.493011,-7.10022c-7.518158,-2.131805 -15.142899,-3.77121 -22.859619,-5.019226c-7.563538,-1.239502 -15.168976,-1.936279 -22.814392,-2.452393c-6.32785,-0.407135 -12.657013,-1.000183 -18.992355,-0.370514c-3.99086,0.241821 -7.891968,0.975769 -11.828674,1.624878c-0.340271,0.102081 -4.726242,1.498169 -2.410416,1.076294c0.243912,-0.399658 1.299469,-1.580231 1.121399,-1.801788c0.026764,0.224121 0.346436,1.643188 0.278,2.328796c0.226578,1.174072 0.344894,2.355927 1.019684,3.376801c0.995285,1.358276 1.920334,2.739075 3.290726,3.764221c3.086212,2.488586 6.289185,4.846924 9.427155,7.281769c6.111206,4.424774 12.122726,8.950867 18.697189,12.687073c9.947952,5.881775 20.166962,11.360626 30.913712,15.652924c13.249481,4.915894 26.876282,8.868073 40.714508,11.752625c13.856323,2.614899 27.868225,4.567139 41.950287,5.392029c12.704132,0.78656 25.449188,0.595703 38.159912,-0.001465c10.075836,-0.380615 20.150421,-1.030823 30.17926,-2.043091c6.002014,-0.649719 12.014099,-1.063507 18.01059,-1.736908c2.459167,-0.19339 4.992462,-0.46521 7.341339,0.346741c5.007477,1.730957 5.770813,5.215881 0.958008,7.431305z" id="path2725"/>
   <path fill="#6b026b" fill-rule="nonzero" stroke-width="1px" d="m425.824097,297.24704c0.990845,-2.773712 2.788879,-5.111908 4.716888,-7.310425c3.35376,-4.911835 6.721466,-9.82608 10.234802,-14.627808c3.491028,-5.104706 7.132416,-10.080933 11.232788,-14.713745c3.281921,-3.773956 7.241058,-6.271912 12.048767,-7.518402c5.080566,-0.894196 9.367828,1.348236 13.229034,4.40686c4.839905,3.003571 6.752686,8.010651 9.72052,12.476349c0.404236,0.690277 0.808441,1.380585 1.212677,2.070892c0.510437,0.871704 -0.723541,1.593475 -1.233124,0.721283l0,0c-0.389893,-0.667328 -0.779785,-1.334656 -1.169678,-2.001984c-2.692566,-4.059235 -7.135315,-6.862244 -10.686646,-10.161652c-3.231079,-1.908386 -6.459351,-3.678925 -10.318268,-3.554199c-4.150909,0.814026 -7.783447,2.296082 -10.838623,5.435364c-4.349854,4.215515 -8.178345,8.927856 -11.559296,13.955017c-3.142639,4.968689 -6.342438,9.898102 -9.038544,15.131378c-0.706543,2.235168 -1.691498,4.389954 -1.961334,6.707367c-0.464691,3.990509 -6.941467,2.767059 -5.589966,-1.016296z" id="path2731"/>
   <path fill="#6b026b" fill-rule="nonzero" stroke-width="1px" d="m438.632172,276.621216c-0.60257,-0.934418 -1.695526,-1.654449 -2.572083,-2.409729c-1.40152,-1.572083 -3.199463,-2.680542 -4.890015,-3.894196c-1.803375,-1.034454 -3.810425,-1.550262 -5.80835,-2.055328c-2.258698,-0.429871 -4.535034,-0.437561 -6.8172,-0.488007c-2.162415,0.051483 -4.21048,0.681549 -6.266541,1.266388c-1.878571,0.667725 -3.35376,2.002502 -4.913666,3.184448c-1.700439,1.531555 -3.044006,3.382629 -4.325409,5.258453c-1.212708,1.740753 -2.013092,3.694672 -2.941711,5.599854c-0.145355,0.293915 -0.29071,0.58786 -0.436066,0.881805c-0.447784,0.905487 -1.557068,0.523621 -1.350708,-0.46521l0,0c0.067841,-0.325073 0.135681,-0.650146 0.203522,-0.975189c0.54483,-2.232056 1.086243,-4.51709 2.284363,-6.501007c1.381378,-2.07193 2.77063,-4.152161 4.526245,-5.952576c1.794342,-1.724609 3.50058,-3.394684 5.991882,-4.07547c2.336334,-0.697449 4.706879,-1.111938 7.151398,-1.250916c2.519653,-0.047211 5.032745,0.066467 7.494598,0.665192c2.373993,0.515594 4.69162,1.052643 6.721252,2.477692c1.858429,1.231995 3.723175,2.439789 5.500092,3.778229c1.113586,0.964905 2.216644,1.884369 3.120575,3.043182c1.429108,1.832092 -1.412933,3.865143 -2.67218,1.912384z" id="path2737"/>
   <path fill="#6b026b" fill-rule="nonzero" stroke-width="1px" d="m352.073273,319.81192c0.096039,-1.523651 -0.369293,-3.032166 -0.66449,-4.519196c-1.007782,-3.849823 -1.851166,-7.73996 -2.778473,-11.627411c-0.983734,-5.418121 -2.442017,-10.73703 -3.521362,-16.143372c-0.777863,-5.406311 -1.44342,-10.797119 -1.653778,-16.264587c-0.208527,-4.955841 0.887115,-9.805908 1.711182,-14.656067c0.600983,-3.472412 1.120605,-6.952698 1.950592,-10.370117c0.494568,-2.695679 1.977295,-4.146423 4.133423,-5.557037c3.293915,-1.220551 5.400452,0.18222 7.863525,2.293701c3.235748,3.506775 6.500244,7.007141 9.764618,10.500092c3.857391,3.972443 7.026337,8.502838 10.06076,13.112061c0.555481,0.843719 -0.637848,1.629272 -1.193237,0.785492l0,0c-2.989746,-4.542084 -6.108917,-9.008698 -9.911285,-12.92215c-3.164398,-3.386383 -6.300262,-6.854675 -10.186798,-9.434692c-1.619873,-0.654694 -2.964691,-1.6362 -4.78717,-1.30127c-1.194336,1.05722 -2.443634,1.782135 -3.023346,3.440735c-1.226288,3.197083 -2.432983,6.387024 -3.13327,9.754425c-1.044556,4.693115 -1.422028,9.504761 -1.419495,14.307068c0.071533,5.333801 0.435913,10.749298 1.759277,15.926239c1.061829,5.323944 2.098572,10.735901 4.113159,15.786743c1.315613,3.727936 2.971893,7.220276 4.866943,10.670746c0.853607,1.616058 1.652527,3.248535 2.375702,4.927155c1.806488,4.193176 -6.613739,5.848145 -6.326477,1.291443z" id="path2741"/>
   <path fill="#6b026b" fill-rule="nonzero" stroke-width="1px" d="m304.119965,291.911926c-0.753174,-1.6008 -0.999603,-3.406891 -1.386353,-5.123077c-0.864197,-3.674469 -1.674042,-7.340057 -2.263702,-11.074738c-0.859039,-5.460144 -1.790253,-10.914124 -3.022308,-16.303772c-0.888275,-4.743011 -2.162323,-9.417206 -2.852936,-14.19339c-0.692078,-3.75592 -1.308472,-7.522278 -1.86377,-11.30069c-0.402985,-2.101166 -0.763489,-4.174927 -1.003296,-6.296783c0.095825,-3.052765 1.455078,-3.737457 4.080597,-4.661926c2.251129,0.744141 3.720398,2.610565 5.303802,4.28302c2.654266,2.772675 4.988281,5.819336 7.398071,8.800415c3.347717,3.694702 6.251648,7.692291 9.0961,11.78299c3.112488,4.520416 6.05661,9.147705 9.041901,13.750183c2.890381,4.096252 5.291748,8.455719 7.715607,12.829071c1.707184,4.281982 3.632355,8.456055 5.178497,12.807129c1.442993,3.866669 2.553284,7.839355 3.760681,11.781586c0.514771,3.092194 0.979126,6.183777 1.58374,9.258667c0.194916,0.99118 -1.057251,1.325653 -1.380188,0.36853l0,0c-0.996643,-2.953522 -2.094421,-5.850769 -3.318207,-8.724487c-1.105835,-3.926636 -2.3414,-7.814697 -3.493073,-11.729462c-1.403381,-4.2388 -2.535706,-8.622223 -4.882263,-12.466125c-2.059845,-4.454742 -4.560791,-8.710541 -7.058502,-12.931274c-2.840332,-4.63974 -5.815735,-9.200867 -9.044891,-13.581787c-2.917114,-3.934052 -5.810913,-7.87677 -9.008606,-11.579498c-2.503418,-2.701843 -5.079681,-5.335266 -8.118713,-7.443878c-0.459045,-0.302948 -3.122284,-2.391235 -2.72522,-1.38562c0.153625,-0.107788 2.673462,-1.684448 1.851624,-1.168365c-0.094849,1.911285 -0.307129,3.839722 -0.111847,5.75943c0.304291,3.742676 0.544891,7.478943 1.02356,11.206879c0.821594,4.700653 1.312897,9.463226 2.342773,14.132111c0.923065,5.369293 1.943054,10.759949 3.655853,15.939178c1.258209,3.441101 2.492554,6.898102 3.961548,10.250122c0.686829,1.626953 1.486267,3.232513 1.918213,4.953918c1.153717,4.597626 -4.360657,6.3508 -6.378693,2.061646z" id="path2749"/>
   <path fill="#6b026b" fill-rule="nonzero" stroke-width="1px" d="m303.089905,292.527008c-1.329926,-1.800323 -2.190826,-3.955811 -3.173859,-5.986542c-2.00351,-4.52002 -4.371246,-8.844818 -6.397491,-13.363556c-2.555725,-5.090881 -5.596436,-9.918091 -7.926086,-15.119019c-2.531311,-5.452484 -4.51532,-11.122162 -6.253784,-16.868622c-1.537109,-5.262421 -3.570618,-10.331085 -5.306549,-15.522858c-1.811127,-4.240448 -2.782013,-8.761658 -3.948395,-13.201874c-0.779388,-3.891998 -1.206329,-7.831421 -1.828186,-11.749603c-0.255249,-2.866333 -1.067017,-5.569031 -1.25061,-8.433289c-0.288788,-2.321411 -0.496185,-4.632416 -0.682434,-6.96637c-0.257233,-1.493011 -0.238892,-3.014771 -0.343567,-4.509583c-0.033386,-2.128082 0.849365,-4.094482 1.492767,-6.055923c0.420593,-1.386047 0.817352,-2.712936 1.230377,-4.049988c0.375671,-1.830719 1.711975,-2.703842 2.98764,-3.88121c2.13681,-1.363846 4.406342,-1.091537 6.797119,-0.742538c3.161469,1.333359 5.790649,3.520599 8.460419,5.631943c3.912292,3.00914 7.514893,6.391632 11.273438,9.584229c4.341675,4.294067 8.515137,8.778931 12.577515,13.342377c4.295319,4.657471 8.007599,9.813995 11.818359,14.878082c3.442139,4.832764 5.930145,10.203979 8.027161,15.726593c1.294403,2.677185 2.432068,5.423401 3.558716,8.173706c0.382935,0.934753 -0.939178,1.476257 -1.321991,0.541443l0,0c-1.115997,-2.72525 -2.243073,-5.446381 -3.525604,-8.09903c-2.920807,-4.987762 -5.633453,-10.069916 -8.759949,-14.936432c-3.392334,-5.298492 -7.447479,-9.859436 -11.935669,-14.259949c-4.266479,-4.241272 -8.24942,-8.756866 -12.834106,-12.670837c-3.466675,-3.226044 -7.29007,-6.026001 -11.375092,-8.426544c-2.469543,-1.142349 -4.921539,-2.42189 -7.659607,-2.777313c-0.495819,-0.177887 -0.805908,-0.507706 -1.187531,-0.426041c-0.160583,0.213791 -0.41864,0.424316 -0.544342,0.724594c-0.519684,1.222015 -1.080505,2.420731 -1.545258,3.714233c-0.384094,1.244965 -0.823669,2.404846 -0.723083,3.765778c0.006348,1.527405 0.175018,3.088226 -0.072144,4.619751c-0.036896,2.23291 -0.1315,4.448853 -0.022339,6.679321c0.252014,2.82193 -0.132141,5.591858 0.124817,8.421417c0.150757,3.812469 0.521545,7.615845 1.266815,11.361328c0.859192,4.394135 1.840729,8.747955 2.950714,13.091583c1.498199,5.25946 2.695801,10.585846 4.356537,15.80249c1.850983,5.601746 3.371643,11.347321 5.985382,16.664276c2.574005,5.047913 4.944733,10.187897 7.821289,15.077484c2.576782,4.130676 4.844818,8.460754 7.90448,12.256744c1.413239,1.692871 2.925354,3.338379 4.220551,5.076996c2.171722,2.915314 -2.076385,5.836761 -4.23642,2.91275z" id="path2751"/>
   <path fill="#6b026b" fill-rule="nonzero" stroke-width="1px" d="m338.385651,258.390106c-1.088806,-2.465271 -1.645416,-5.111481 -2.313416,-7.69812c-1.437317,-4.711823 -2.892914,-9.428955 -4.683899,-14.020935c-2.198914,-5.467102 -3.551483,-11.192017 -4.687958,-16.956665c-1.019287,-5.814636 -2.066772,-11.624023 -3.115143,-17.433472c-0.866272,-4.397858 -1.439484,-8.839691 -1.958771,-13.285706c-0.279694,-3.647491 -0.576233,-7.294586 -0.746216,-10.950134c-0.275513,-2.663483 -0.357117,-5.361847 -0.344238,-8.036636c-0.126007,-2.024597 0.510925,-3.936905 0.935699,-5.884506c0.972412,-2.383713 2.076385,-3.160873 4.490234,-3.684891c3.288788,0.53093 6.080353,2.391541 8.821869,4.184784c4.121246,3.232147 8.375854,6.280411 12.432678,9.595139c4.449249,3.643982 8.120789,8.064056 11.604553,12.606201c2.269257,2.890717 4.457397,5.808228 6.483643,8.871429c0.557312,0.842529 -0.541656,1.629456 -1.161438,0.831787l0,0c-2.239502,-2.882172 -4.355347,-5.845947 -6.455811,-8.833893c-3.416016,-4.455139 -7.012024,-8.794403 -11.374908,-12.369354c-3.97168,-3.246216 -7.988953,-6.577911 -12.639191,-8.810822c-2.40271,-1.136581 -4.633209,-2.729202 -7.373627,-2.616119c-0.477264,0.375992 -1.898743,-0.12944 -1.596954,1.258102c-0.557556,1.656845 -1.068665,3.285416 -1.203339,5.045898c-0.275909,2.602081 -0.389435,5.225739 -0.624603,7.837204c-0.112823,3.616058 -0.255676,7.211304 0.241974,10.811035c0.44165,4.418671 1.009094,8.817139 1.874329,13.176788c1.046997,5.80191 2.093384,11.60379 3.11087,17.41098c1.116638,5.669342 2.398071,11.334595 4.672607,16.671051c1.921753,4.568695 4.265259,8.94455 6.136292,13.537689c1.081726,2.238556 2.199677,4.491669 3.192139,6.770905c1.187927,2.72821 -2.515198,4.694214 -3.717377,1.97226z" id="path2755"/>
   <path fill="#6b026b" fill-rule="nonzero" stroke-width="1px" d="m341.28418,256.586456c0.398804,-2.123718 0.380127,-4.309296 0.417023,-6.468201c0.154816,-3.542419 -0.071198,-7.099548 -0.217285,-10.647156c-0.174591,-3.671417 -0.144928,-7.3461 -0.097198,-11.019714c0.102051,-2.671783 -0.236816,-5.284271 -0.633362,-7.907806c-0.212067,-2.179077 -0.30542,-4.347443 -0.483185,-6.491272c-0.387421,-1.871063 -0.001373,-3.661316 0.33316,-5.489807c0.134949,-1.565002 1.219269,-2.49292 2.056732,-3.672028c1.364319,-1.706085 2.80896,-1.42041 4.693726,-1.589142c3.007416,0.493256 5.411896,2.168304 7.782867,3.962769c3.051086,2.514771 5.638336,5.450012 7.884705,8.689758c2.595276,4.041687 4.753174,8.34079 6.965088,12.598297c2.136536,4.260101 4.163055,8.575043 6.171539,12.89679c1.788422,3.562103 3.097443,7.282318 4.407776,11.02478c0.158447,0.495789 0.316864,0.991577 0.475281,1.487335c0.307465,0.962219 -1.053467,1.397003 -1.360809,0.434753l0,0c-0.156128,-0.4888 -0.312256,-0.97757 -0.468414,-1.46637c-1.290283,-3.687683 -2.751312,-7.308716 -4.349335,-10.878448c-1.999603,-4.302704 -4.017212,-8.598602 -6.143738,-12.84021c-2.184204,-4.204224 -4.314545,-8.449615 -6.87204,-12.443909c-2.127258,-3.079224 -4.51181,-6.031952 -7.666046,-8.109344c-2.213562,-1.156647 -4.352814,-2.578125 -6.956787,-2.717072c-0.875977,0.2565 -1.812073,0.014526 -2.441345,0.838959c-0.569458,0.786652 -1.269806,1.457001 -1.667511,2.354858c-0.16153,1.598572 -0.363831,3.196655 -0.395752,4.810303c0.071198,2.121948 0.222046,4.275818 0.369629,6.436829c-0.053467,2.695923 -0.139526,5.395966 -0.273804,8.092926c-0.047516,3.647552 -0.077118,7.296204 0.096344,10.94162c0.145477,3.533966 0.224884,7.09079 0.837341,10.57547c0.291534,2.076904 0.4888,4.225159 1.297638,6.169434c1.02829,2.471893 -4.256317,3.056854 -3.762238,0.425598z" id="path2763"/>
   <path fill="#6b026b" fill-rule="nonzero" stroke-width="1px" d="m362.307648,217.119934c0.321411,-1.840393 0.441071,-3.724945 0.568573,-5.589294c0.006958,-2.978485 0.680023,-5.853088 1.386932,-8.725861c0.619354,-3.248138 1.745728,-6.369293 2.966125,-9.43222c1.335541,-2.913177 3.471405,-4.918121 5.926758,-6.853058c2.116821,-1.64978 4.555206,-2.727783 6.911804,-3.970673c2.581146,-1.382202 5.134979,-1.445831 7.921356,-1.270233c3.691315,1.139008 6.298798,3.802948 9.039124,6.346985c3.591125,3.376129 5.293335,8.051819 6.986176,12.562439c0.354919,0.94574 -0.9841,1.447296 -1.337799,0.501099l0,0c-1.618591,-4.329926 -3.925507,-8.061554 -7.280762,-11.295868c-2.442993,-1.962158 -4.884796,-3.980835 -8.025055,-4.662201c-2.152252,-0.149139 -3.918335,-0.335022 -5.905762,0.881836c-2.253571,0.952698 -4.400391,2.103363 -6.453308,3.44809c-1.962158,1.592316 -3.818512,3.2659 -4.858734,5.644043c-1.24704,2.83194 -2.412903,5.654175 -2.938446,8.730225c-0.374146,2.701263 -0.796539,5.419128 -0.757477,8.156921c0.080841,1.701111 0.059967,3.48645 0.637482,5.097992c1.146515,3.19931 -5.371674,3.777649 -4.786987,0.429779z" id="path2765"/>
   <path fill="#6b026b" fill-rule="nonzero" stroke-width="1px" d="m400.779327,228.324554c0.308044,-1.616913 0.395142,-3.230316 0.648651,-4.858398c0.266968,-3.33429 0.691559,-6.60788 1.230743,-9.914215c0.784119,-3.770538 1.74649,-7.488953 2.679626,-11.223663c0.583893,-3.226654 1.588257,-6.348083 2.710632,-9.415558c0.814514,-2.46051 1.98175,-4.716095 3.377197,-6.884277c1.129181,-1.885681 2.84668,-3.21817 4.487823,-4.583801c1.705017,-1.66684 3.537292,-2.162415 5.816193,-2.470764c3.066742,-0.088745 5.64975,1.081848 8.299866,2.3508c3.201324,2.484558 5.815643,5.570343 8.034119,8.952026c2.932098,4.074036 4.658447,8.788177 6.842407,13.259857c2.611755,4.496368 4.356964,9.422546 6.093964,14.303925c1.415985,4.522491 2.082001,9.199127 3.474762,13.725189c0.297089,0.965485 -1.068298,1.385651 -1.365387,0.420166l0,0c-1.381287,-4.488892 -3.475677,-8.641113 -5.305389,-12.958771c-1.835022,-4.740082 -3.942108,-9.338226 -5.98642,-13.986725c-2.083679,-4.292786 -4.484161,-8.446777 -6.980347,-12.509583c-2.058197,-2.842102 -4.134369,-5.691376 -7.077301,-7.676056c-1.78952,-1.303406 -3.473114,-2.645416 -5.777893,-2.67038c-1.477905,0.365845 -3.050659,0.495514 -4.35672,1.463196c-1.404022,1.245026 -2.868164,2.392944 -4.056549,3.883606c-1.284119,1.988251 -2.69223,3.932251 -3.553162,6.16629c-1.171997,2.973053 -2.357635,5.921021 -3.233551,9.000702c-0.97998,3.663605 -2.042877,7.339996 -2.485901,11.116455c-0.397003,3.247406 -0.847961,6.499115 -0.863586,9.781189c0.103027,1.58197 0.02301,3.168579 0.377228,4.72879c0.474548,2.090057 -3.432129,2.105377 -3.031006,0z" id="path2767"/>
   <path fill="#6b026b" fill-rule="nonzero" stroke-width="1px" d="m436.225098,165.405807c2.168091,-2.412354 3.452972,-5.471725 5.067963,-8.273239c2.413422,-4.085602 5.160095,-7.957596 7.956909,-11.786026c2.252838,-3.208969 4.778992,-6.200485 7.34137,-9.161606c1.423157,-2.051773 3.279755,-3.565033 5.211273,-5.079041c2.319,-1.319778 3.554871,-0.513382 5.732727,0.429001c1.86084,1.730774 3.644867,3.555511 5.405792,5.360321c2.422455,3.54422 4.820984,7.073364 6.758514,10.917206c2.093964,4.08165 4.188995,8.115952 5.746735,12.444626c1.491364,3.686234 2.687622,7.475342 3.809387,11.28862c0.953674,2.503738 0.861633,5.21254 0.868134,7.784012c0.002563,1.010162 -0.942535,1.209076 -1.395386,0.306122l0,0c-1.109344,-2.212036 -2.316589,-4.540222 -2.973022,-7.041489c-1.18927,-3.715088 -2.316193,-7.448929 -3.478302,-11.169785c-1.555969,-4.147995 -3.051239,-8.364975 -5.103638,-12.289032c-1.950714,-3.582382 -3.714172,-7.363846 -6.513062,-10.377213c-1.343628,-1.83252 -2.555176,-3.704208 -4.599976,-4.834488c-1.028564,-0.32637 -1.902283,-1.091888 -3.10788,-0.729355c-1.89386,1.12204 -3.776581,2.251862 -5.276306,3.949203c-2.550629,2.913025 -5.049042,5.869293 -7.272858,9.045639c-2.766724,3.786743 -5.484375,7.616211 -7.872803,11.656799c-1.630157,2.827179 -3.407684,5.634308 -4.271118,8.799683c-0.443359,1.625305 -3.160583,0.013046 -2.034454,-1.23996z" id="path2769"/>
   <path fill="#6b026b" fill-rule="nonzero" stroke-width="1px" d="m451.190887,226.690765c0.845245,-1.865814 2.208801,-3.41983 3.333466,-5.128815c2.438232,-3.747803 5.281464,-7.192841 7.93396,-10.787689c3.204956,-4.216858 6.908325,-8.002869 10.284637,-12.074249c2.895477,-3.522919 6.063141,-6.789673 9.342438,-9.950989c2.35788,-2.326904 4.775513,-4.580261 7.193176,-6.846649c1.49234,-1.59726 3.387878,-2.674591 5.200439,-3.806122c3.437103,-0.889618 4.506805,1.143982 5.012909,4.137238c0.980774,2.90094 1.386902,5.898682 1.719971,8.954529c0.581207,4.356293 0.79303,8.747955 0.986511,13.134827c0.118988,3.065277 0.302338,6.127594 0.45694,9.191223c0.050934,1.008881 -1.375824,1.080872 -1.426758,0.072021l0,0c-0.154755,-3.066681 -0.338257,-6.131989 -0.457367,-9.200317c-0.190582,-4.322784 -0.348389,-8.665558 -1.032166,-12.944183c-0.749359,-2.701691 -1.358978,-5.624603 -2.748566,-8.027771c-1.016113,0.173126 -1.574371,-0.163971 -0.337616,0.057526c-1.359741,0.745514 -2.732178,1.472534 -3.901489,2.583862c-2.603729,1.94931 -5.166077,3.926483 -7.705261,5.960144c-3.283478,2.910736 -6.568909,5.819946 -9.445953,9.148743c-3.476288,3.874969 -6.474518,8.127197 -9.627899,12.264679c-2.630707,3.397186 -4.598877,7.151947 -6.36792,11.062103c-0.840607,1.717468 -1.44635,3.537262 -2.467041,5.144135c-2.515747,3.960449 -7.882538,1.32959 -5.946411,-2.944244z" id="path2771"/>
   <path fill="#6b026b" fill-rule="nonzero" stroke-width="1px" d="m467.460114,249.989014c1.14621,-1.630463 2.289886,-3.214874 3.618774,-4.703278c1.269653,-2.031616 3.082214,-3.401459 5.020294,-4.725922c0.833984,-0.569946 1.567169,0.375153 0.885712,1.12085l0,0c-1.438385,1.573975 -2.893097,3.168762 -4.313812,4.780182c-0.846283,1.548157 -1.841248,3.055267 -1.971832,4.850555c-0.179504,2.467407 -4.661896,0.701447 -3.239136,-1.322388z" id="path2773"/>
   <path fill="#6b026b" fill-rule="nonzero" stroke-width="1px" d="m490.940002,247.807281c-0.430817,-1.027954 -1.202179,-1.819275 -1.835144,-2.719238c-1.675812,-1.483917 -3.690552,-2.273895 -5.687134,-3.19162c-0.470734,0.025116 -0.941498,0.050232 -1.412231,0.075348c-1.008728,0.053833 -1.078949,-1.38147 -0.069794,-1.42688l0,0c0.533813,-0.024017 1.067657,-0.048035 1.601501,-0.072052c2.940643,-0.235199 5.469025,-0.152649 7.971649,1.852509c1.319183,1.088745 2.594482,2.089233 3.187286,3.777161c0.966522,2.751953 -2.628784,4.394836 -3.756134,1.704773z" id="path2777"/>
   <path fill="#6b026b" fill-rule="nonzero" stroke-width="1px" d="m500.033997,223.05658c-1.739014,1.643707 -2.406128,4.211212 -3.033936,6.512177c-1.479401,6.123962 -1.82196,12.520172 -2.208832,18.801331c-0.209045,3.320251 -0.09787,6.642731 0.027527,9.962433c0.038116,1.00943 -1.389709,1.063171 -1.427582,0.053741l0,0c-0.126312,-3.366913 -0.238159,-6.736664 -0.025818,-10.104065c0.393372,-6.376038 1.193878,-12.708557 1.690765,-19.068359c0.302429,-3.072235 0.261322,-6.26001 1.330841,-9.188354c1.15033,-3.14975 6.083984,0.727722 3.647034,3.031097z" id="path2783"/>
   <path fill="#6b026b" fill-rule="nonzero" stroke-width="1px" d="m504.99115,222.201874c-0.320343,1.204803 -0.071014,2.392365 -0.02533,3.599579c0.038177,1.00943 -1.071228,1.188812 -1.408844,0.236725l0,0c-0.364868,-1.028931 -0.363525,-2.159821 -1.33786,-2.883636c-1.663757,-1.236023 3.304565,-2.955719 2.772034,-0.952667z" id="path2785"/>
   <path fill="#6b026b" fill-rule="nonzero" stroke-width="1px" d="m510.075958,228.822968c-0.149841,-2.172668 -0.357086,-4.150696 -0.166595,-6.328522c0.2341,-3.035461 1.088104,-6.028931 1.880341,-8.970337c0.488068,-2.607697 1.550751,-4.967407 2.766144,-7.294067c1.135559,-1.938232 2.541321,-3.302979 4.385864,-4.46524c4.154724,-0.469543 4.784119,2.275055 6.311707,5.550873c1.667664,4.94104 3.796265,9.694 5.483521,14.629303c0.346008,1.082947 0.692017,2.165894 1.038086,3.24881c0.307434,0.962219 -1.053467,1.397034 -1.360779,0.434753l0,0c-0.343079,-1.073883 -0.686096,-2.147766 -1.029114,-3.221649c-1.6297,-4.77182 -3.156921,-9.710785 -6.660889,-13.478455c-0.670532,-0.647369 -3.802734,-2.334808 -1.7948,-2.236877c-0.650696,0.524078 -1.915344,0.973389 -2.306091,2.085144c-1.143005,1.866791 -2.331116,3.717743 -2.929016,5.856293c-0.723877,2.767975 -1.412964,5.525452 -1.93457,8.322937c-0.238708,1.993378 -0.926208,3.87207 -0.91394,5.867035c0.012024,1.958557 -2.635132,1.953949 -2.769867,0z" id="path2787"/>
   <path fill="#6b026b" fill-rule="nonzero" stroke-width="1px" d="m497.368927,165.695145c1.849701,-2.793121 4.02829,-5.450607 5.835266,-8.368958c3.055542,-4.906311 5.99826,-9.881485 8.928497,-14.863235c2.083801,-3.603516 4.420776,-7.046753 6.725403,-10.509506c1.629456,-2.602005 3.717346,-4.187164 6.436218,-5.402817c3.461609,-0.287262 5.341431,1.700684 7.415833,4.179504c2.720398,2.926834 3.860718,6.669952 4.905334,10.448181c1.536865,5.302292 2.799927,10.703979 3.550842,16.174423c0.984985,5.641403 1.061707,11.360016 1.313171,17.061279c0.16272,2.392929 -0.159058,4.761276 -0.235474,7.150467c-0.032288,1.009644 -1.460205,0.963898 -1.427856,-0.045746l0,0c0.07605,-2.372406 -0.110535,-4.716736 0.016479,-7.088943c0.143005,-5.631058 -0.32251,-11.2733 -1.129089,-16.84552c-0.961548,-5.350281 -1.726746,-10.750549 -3.451843,-15.931366c-1.431152,-3.351822 -3.401428,-6.265656 -5.514282,-9.213394c-1.48291,-1.320587 -2.671204,-2.867264 -4.765564,-3.058182c-2.312988,0.728882 -4.16394,1.514908 -5.700134,3.658432c-2.615417,3.169846 -4.895081,6.55275 -6.907715,10.147461c-2.93573,4.991074 -5.883972,9.97551 -8.945221,14.891006c-1.767975,2.855362 -3.203705,5.878784 -4.610962,8.824478c-0.829529,1.736404 -3.501434,0.396881 -2.438904,-1.207565z" id="path2791"/>
   <path fill="#6b026b" fill-rule="nonzero" stroke-width="1px" d="m537.871948,184.74823c2.341919,-1.496002 4.092224,-3.722992 5.960938,-5.747375c1.848267,-2.197388 3.426819,-4.568237 5.168091,-6.844727c1.140381,-1.612671 2.68335,-2.871918 4.174316,-4.152725c2.801758,-0.826935 4.304077,-0.19017 6.310425,1.630936c1.81073,2.866165 2.644348,5.964294 3.3302,9.243408c0.575806,5.592316 0.88623,11.207062 0.750061,16.829224c-0.13324,6.722229 -1.061707,13.395172 -1.901611,20.057831c-1.514832,7.394165 -3.454163,14.664154 -5.958862,21.787048c-2.86969,6.743225 -4.380859,14.00946 -7.853455,20.479034c-2.273865,2.568329 -3.881104,5.192169 -5.07373,8.374359c-0.354492,0.945892 -1.6922,0.444519 -1.337708,-0.501373l0,0c1.190979,-3.177734 1.69873,-6.196747 1.640259,-9.623688c1.538757,-7.125946 5.229675,-13.535217 7.189575,-20.555267c2.180481,-6.804504 4.709229,-13.594849 5.110474,-20.800446c0.904175,-6.379425 1.317444,-12.800507 1.437317,-19.241455c-0.096069,-5.154022 -0.177979,-10.328186 -1.514893,-15.346924c-0.53241,-2.397491 -0.987366,-4.818237 -1.299255,-7.238113c0.187012,-0.23317 0.997742,-0.823059 0.969727,-1.209244c-1.236267,0.576981 -2.781128,1.124359 -3.881287,2.304291c-2.169617,1.791504 -4.335327,3.607635 -6.186523,5.750824c-1.691223,2.027039 -3.765869,3.924591 -4.401672,6.550781c-0.525574,2.171021 -4.514771,-0.543884 -2.632385,-1.746399z" id="path2793"/>
   <path fill="#6b026b" fill-rule="nonzero" stroke-width="1px" d="m378.822845,179.902191c1.076813,-2.964874 2.711456,-5.761826 4.021759,-8.671432c2.777527,-6.123978 5.126099,-12.448914 7.540527,-18.729004c2.119934,-5.510529 3.914307,-11.140549 6.123352,-16.618088c1.151123,-3.697311 2.514191,-7.310654 4.109161,-10.827225c1.255981,-2.798409 3.105103,-4.768929 5.513336,-6.521126c3.920898,-2.02755 6.547577,-0.129593 9.683899,2.279976c3.141876,3.355591 6.251526,6.797134 8.680481,10.70932c2.904907,4.46257 5.629211,9.082199 8.186005,13.760239c2.222107,4.245361 4.042572,8.682785 5.923401,13.085281c0.396851,0.928925 -0.919708,1.483475 -1.316559,0.554535l0,0c-1.861877,-4.358139 -3.66333,-8.751099 -5.860535,-12.954926c-2.510651,-4.598053 -5.380127,-8.846024 -9.311615,-12.375427c-3.265808,-2.696579 -6.03186,-6.011497 -9.648376,-8.273407c-1.017975,-0.51622 -2.045593,-1.11721 -3.071686,-1.558578c-1.301514,1.243378 -2.625549,2.345848 -3.397583,4.050308c-1.779236,3.232498 -3.576447,6.493057 -5.098236,9.876648c-2.27536,5.428619 -4.793671,10.755859 -6.956024,16.229919c-2.50708,6.08078 -5.250336,12.233231 -6.291748,18.758102c-0.466888,2.894196 -0.784668,5.79892 -0.970154,8.695526c-0.361328,5.642334 -9.78949,3.843597 -7.859406,-1.470642z" id="path2805"/>
   <path fill="#6b026b" fill-rule="nonzero" stroke-width="1px" d="m332.632446,161.371933c1.735962,-1.431549 3.133484,-3.192749 4.577972,-4.879852c1.903961,-2.979782 3.692902,-6.032516 5.548309,-9.043549c0.513,-0.899948 1.12561,-1.736725 1.688049,-2.604584c0.549408,-0.847687 1.736877,-0.053513 1.1875,0.794174l0,0c-0.554657,0.855759 -1.160034,1.680054 -1.664551,2.568283c-1.847015,2.99733 -3.728119,5.980927 -5.395813,9.082642c-0.749268,2.052658 -1.610931,4.106125 -1.984436,6.287033c-0.540649,3.156891 -6.428101,-0.166473 -3.957031,-2.204147z" id="path2811"/>
   <path fill="#6b026b" fill-rule="nonzero" stroke-width="1px" d="m367.048218,134.641693c2.110474,0.288986 3.742523,1.563446 5.575897,2.567368c2.359802,1.550201 4.791504,2.962387 7.198517,4.420517c2.202515,1.168884 4.003387,2.790543 5.7323,4.554337c1.246674,1.557388 2.429993,2.971909 3.883087,4.269531c0.976959,0.832489 1.823425,1.834671 2.668976,2.77565c-0.266937,0.470215 -0.533844,0.94043 -0.800812,1.41066c-0.567444,0.999619 -0.177765,0.549393 -1.171692,1.126785l0,0c-0.461365,0.268036 -0.92276,0.536057 -1.384125,0.804077c-0.959961,-0.923874 -1.958069,-1.861481 -2.840759,-2.876022c-1.097992,-1.616714 -2.276337,-3.070602 -3.607422,-4.529373c-1.502686,-1.46199 -2.987518,-2.971603 -4.6987,-4.217789c-2.186676,-1.62381 -4.35849,-3.226089 -6.935547,-4.215179c-1.595367,-0.868057 -3.208313,-1.604218 -4.816833,-2.363876c-2.502747,-1.181931 -1.545074,-4.102173 1.197113,-3.726685z" id="path2833"/>
   <path fill="#6b026b" fill-rule="nonzero" stroke-width="1px" d="m467.670349,131.276123c1.841949,-1.03772 3.338043,-2.567139 4.883118,-3.981529c2.862762,-2.253471 5.166779,-5.079414 7.621643,-7.749474c1.63501,-2.114883 3.455505,-4.069748 5.319183,-5.979584c2.093414,-2.00396 4.137146,-2.014496 6.823181,-1.826904c3.205444,1.253906 5.435089,4.053551 7.790894,6.437546c2.853882,3.215729 5.290741,6.76841 7.855927,10.215942c1.835022,2.658508 3.674866,5.258423 5.092285,8.159912c0.510864,1.231735 0.151672,2.522308 -0.030273,3.79866c-0.142517,1.000061 -0.509705,1.072281 -1.339569,0.496353l0,0c-0.933136,-0.647583 -1.955505,-1.288269 -2.602814,-2.238403c-1.555725,-2.647736 -2.759277,-5.480225 -4.38382,-8.098007c-2.069733,-3.541199 -4.245392,-6.966202 -7.148804,-9.906097c-1.848206,-1.843842 -3.53775,-3.701012 -6.204193,-4.474892c-1.150635,0.071602 -2.077423,-0.486359 -3.096497,0.650787c-1.974213,1.588203 -3.93277,3.190346 -5.790405,4.91967c-2.533264,2.576553 -5.191315,5.050583 -7.168579,8.101013c-1.268463,1.697266 -2.624054,3.373459 -3.583771,5.278015c-1.764893,3.502472 -7.454559,-1.87793 -4.037506,-3.803009z" id="path2841"/>
   <path fill="#6b026b" fill-rule="nonzero" stroke-width="1px" d="m283.046112,168.396225c0.274628,-2.077652 0.503479,-4.182388 0.850677,-6.254272c0.475922,-2.953918 0.865295,-5.909027 1.101776,-8.890259c0.158173,-2.499619 1.124817,-4.60849 2.405945,-6.703979c2.433472,-2.559647 4.745911,-2.315643 7.856781,-1.907104c3.338226,0.976883 6.265808,2.478287 9.170593,4.339645c3.033478,2.485855 5.954895,5.025269 8.779572,7.746033c2.127838,1.740814 3.614288,3.910797 5.029572,6.217865c0.528168,0.861053 -0.332428,1.580582 -1.094757,0.917801l0,0c-1.985168,-1.725967 -3.841034,-3.524338 -5.442596,-5.627991c-2.641174,-2.683258 -5.195953,-5.546204 -8.425812,-7.539307c-2.569366,-1.620361 -4.963715,-3.537872 -8.154053,-3.093628c-1.421356,0.510803 -2.900848,0.676315 -3.966827,1.843353c-0.757385,1.462753 -1.852631,2.766083 -2.012054,4.588913c-0.771759,2.793549 -1.261017,5.625748 -1.503845,8.528c-0.159943,2.156799 -0.470306,4.299973 -0.777954,6.424973c-0.391327,2.702896 -4.174896,2.117508 -3.817017,-0.590042z" id="path2845"/>
   <path fill="#6b026b" fill-rule="nonzero" stroke-width="1px" d="m398.921875,250.371765c1.116913,1.861145 1.302429,3.975433 1.521912,6.102844c0.623047,3.90097 0.904877,7.196991 -0.901215,10.791656c0.086914,0.716797 0.173859,1.433594 0.260803,2.150391c0.121613,1.002838 -1.29657,1.174835 -1.418182,0.172028l0,0c-0.0867,-0.714996 -0.173431,-1.429962 -0.260132,-2.144928c-2.551971,-2.97168 -3.092773,-6.162872 -3.675293,-9.958221c-0.415558,-2.183563 -0.927948,-4.343781 -0.131592,-6.476074c1.149841,-3.078674 2.912567,-3.455566 4.603699,-0.637695z" id="path2853"/>
   <path fill="#6b026b" fill-rule="nonzero" stroke-width="1px" d="m413.09494,246.841736c0.13327,2.656158 -0.231567,5.799316 -0.230377,8.65625c0.182251,3.499573 -0.683258,6.782715 -0.329865,10.245178c0.10257,1.004913 -1.295837,1.162628 -1.419586,0.160095l0,0c-0.431549,-3.496674 -1.962128,-6.624451 -2.199249,-10.187042c-0.301727,-2.75531 -0.843201,-5.752441 -1.233093,-8.291412c-0.584229,-3.804504 5.219269,-4.427368 5.41217,-0.583069z" id="path2855"/>
   <path fill="#6b026b" fill-rule="nonzero" stroke-width="1px" d="m428.373688,233.586914c0.244659,2.858765 -0.360077,5.613312 -0.821777,8.421631c-0.16391,5.433258 -2.444427,10.208252 -3.967773,15.298828c-0.289612,0.967743 -1.221741,0.930145 -1.427368,-0.058868l0,0c-1.081268,-5.200653 -2.715363,-10.17276 -2.252197,-15.58078c-0.197205,-2.440491 -0.570923,-4.88028 -0.751129,-7.31012c-0.483917,-6.524506 8.662415,-7.289307 9.220245,-0.770691z" id="path2857"/>
   <path fill="#6b026b" fill-rule="nonzero" stroke-width="1px" d="m438.48999,246.91629c-0.388336,2.409363 -0.949127,4.840912 -1.298462,7.291656c-0.33725,2.86734 -1.300842,5.522156 -1.81427,8.346649c-0.180664,0.993866 -1.415466,0.888 -1.42334,-0.122131l0,0c-0.022675,-2.912964 -0.48288,-5.72995 -0.072693,-8.646545c0.252686,-2.388855 0.373077,-4.773956 0.391052,-7.156616c0.022522,-2.989197 4.693359,-2.664215 4.217712,0.286987z" id="path2859"/>
   <path fill="#6b026b" fill-rule="nonzero" stroke-width="1px" d="m452.981598,240.65979c-0.664795,3.433746 -2.028381,6.958649 -3.018311,10.394348c-1.410706,4.600739 -3.55249,8.664795 -4.348846,13.443817c-0.166046,0.996429 -1.575195,0.761597 -1.409149,-0.234802l0,0c0.787811,-4.727661 0.222015,-9.266632 0.351501,-14.03064c0.051086,-3.430389 -0.311005,-6.893616 -0.597687,-10.216003c-0.549866,-6.372375 10.23822,-5.636169 9.022491,0.64328z" id="path2861"/>
   <path fill="#6b026b" fill-rule="nonzero" stroke-width="1px" d="m475.857147,418.366394c1.84256,2.421326 3.974792,4.649567 6.0271,6.914215c5.101166,3.374268 10.204346,7.232727 14.524323,11.643982c5.175171,5.456909 10.281494,10.944641 15.448578,16.431213c4.154572,4.483459 9.51297,7.623779 14.476349,11.155151c5.013062,2.905457 10.351563,4.60675 15.878418,6.181152c7.546509,1.720947 15.343018,1.865601 23.052612,1.887756c11.046326,-0.318726 22.048706,-1.338135 32.929871,-3.253662c12.648987,-2.115662 24.850098,-6.101501 36.831665,-10.580994c9.968506,-3.869507 19.667847,-8.39978 29.204895,-13.228088c5.098816,-2.793945 10.293884,-5.415161 15.401367,-8.179626c2.955078,-1.622559 5.806641,-2.743042 9.083435,-3.179199c2.02655,1.021423 4.204224,1.604004 6.242859,2.401367c1.330444,0.520386 1.221985,0.395081 0.930115,1.793518l0,0c-0.451416,2.162659 -1.05542,4.367188 -1.553406,6.581848c-2.81488,2.614868 -5.744629,4.284546 -9.603943,5.193604c-5.558289,1.545898 -11.039246,3.366638 -16.589294,4.954773c-10.302063,3.274841 -20.439636,7.018311 -30.608032,10.680908c-12.457031,4.251465 -25.002075,8.242188 -37.815918,11.288208c-11.229858,2.444885 -22.503174,4.827087 -33.997681,5.635254c-8.796204,0.790833 -17.653748,1.360657 -26.411438,-0.197632c-6.976013,-1.502686 -13.923218,-4.062134 -19.556213,-8.544006c-5.637329,-4.213257 -10.66571,-8.614868 -15.016876,-14.210571c-4.851898,-5.687561 -9.393738,-11.610962 -14.2435,-17.273499c-4.042023,-4.527832 -7.677734,-9.451355 -11.546143,-14.063354c-2.435608,-2.062012 -4.85321,-4.172699 -7.287476,-6.20575c-3.082916,-2.574829 1.7659,-7.023041 4.198334,-3.826569z" id="path2872"/>
   <path fill="#6b026b" fill-rule="nonzero" stroke-width="1px" d="m554.616516,375.050385c5.59668,0.677002 11.157104,-0.068298 16.686707,-0.962738c13.588318,-1.649689 26.558411,-6.174347 39.408691,-10.671143c14.386597,-4.960876 28.459656,-10.734772 42.286438,-17.076874c9.262512,-4.775665 17.888123,-10.609039 26.428284,-16.544769c5.44342,-3.800873 10.915833,-7.535126 16.16626,-11.590851c3.849182,-2.909546 7.259644,-6.277557 10.524475,-9.797974c1.853821,-1.883911 3.270752,-3.956726 4.61084,-6.196808c0.148499,-0.538422 0.024597,-1.11673 0.036926,-1.67511c0.71228,0.116943 -3.761841,-1.391388 -4.508789,-1.611359c-7.747864,-1.368011 -15.697876,-1.068146 -23.523315,-0.581848c-10.77478,0.480347 -21.462952,2.113556 -32.132935,3.613251c-10.33905,1.672577 -20.690186,3.27594 -31.010376,5.062408c-1.407593,0.243652 -1.752197,-1.747101 -0.344543,-1.990723l0,0c10.341309,-1.789825 20.71344,-3.397186 31.07373,-5.072327c10.71814,-1.506439 21.459534,-2.77774 32.198364,-4.096771c8.14386,-0.907928 16.211548,-2.279297 24.361206,-3.090363c4.734802,0.19577 9.200623,-0.082458 12.125061,4.222076c0.605164,3.167114 0.927002,5.656097 -0.862,8.560944c-1.633667,3.153717 -3.175598,6.461609 -5.801514,8.931976c-3.889832,3.495087 -7.89032,6.942841 -12.273499,9.869324c-5.735474,3.724609 -11.3302,7.678772 -17.489807,10.700775c-9.376953,4.803864 -19.010193,9.077454 -28.736145,13.124512c-13.884216,6.367645 -28.015259,12.166077 -42.461365,17.14743c-12.982056,4.542816 -25.960815,9.095581 -38.787354,14.065887c-5.840454,1.901215 -11.51239,4.208282 -17.324341,6.139618c-7.044922,2.341064 -8.020996,-11.370026 -0.651001,-10.478546z" id="path2880"/>
  </g>
 </g>
</svg>
